<mxfile host="app.diagrams.net" modified="2023-03-26T04:32:49.011Z" agent="5.0 (Windows)" etag="8jFVOF2M_Wd9t3p9nOxW" version="21.0.6" type="github">
  <diagram id="07fea595-8f29-1299-0266-81d95cde20df" name="Page-1">
    <mxGraphModel dx="-651" dy="60" grid="1" gridSize="10" guides="1" tooltips="1" connect="1" arrows="1" fold="1" page="1" pageScale="1" pageWidth="1169" pageHeight="827" background="none" math="0" shadow="0">
      <root>
        <mxCell id="0" />
        <mxCell id="1" parent="0" />
        <mxCell id="727" value="" style="edgeStyle=none;html=1;fontColor=#000000;strokeWidth=3;strokeColor=#000000;startArrow=none;" parent="1" edge="1" source="Sir0Li-0Dpy--8XOf5-H-782">
          <mxGeometry width="100" height="100" relative="1" as="geometry">
            <mxPoint x="2622" y="1474" as="sourcePoint" />
            <mxPoint x="2622.5" y="1029.5" as="targetPoint" />
          </mxGeometry>
        </mxCell>
        <mxCell id="734" value="" style="edgeStyle=none;html=1;fontColor=#000000;strokeWidth=3;strokeColor=#000000;startArrow=none;" parent="1" edge="1" source="Sir0Li-0Dpy--8XOf5-H-796">
          <mxGeometry width="100" height="100" relative="1" as="geometry">
            <mxPoint x="2622" y="1474" as="sourcePoint" />
            <mxPoint x="3074.5" y="1474.5" as="targetPoint" />
          </mxGeometry>
        </mxCell>
        <mxCell id="735" value="X1" style="text;spacingTop=-5;html=1;fontSize=18;fontStyle=0;points=[];strokeColor=none;" parent="1" vertex="1">
          <mxGeometry x="3090" y="1464" width="40" height="20" as="geometry" />
        </mxCell>
        <mxCell id="739" value="" style="whiteSpace=wrap;fillColor=#dae8fc;gradientColor=#7ea6e0;gradientDirection=east;strokeColor=#6c8ebf;html=1;" parent="1" vertex="1">
          <mxGeometry x="3257.5" y="989.5" width="35.000000000000114" height="30.000000000000227" as="geometry" />
        </mxCell>
        <mxCell id="740" value="" style="whiteSpace=wrap;fillColor=#d5e8d4;gradientColor=#97d077;gradientDirection=east;strokeColor=#82b366;html=1;" parent="1" vertex="1">
          <mxGeometry x="3257.4999999999995" y="954.4999999999999" width="35.000000000000114" height="30.000000000000227" as="geometry" />
        </mxCell>
        <mxCell id="742" value="X1 ≤ 45" style="text;spacingTop=-5;html=1;points=[];fontSize=15;" parent="1" vertex="1">
          <mxGeometry x="3297.5" y="919.5000000000001" width="80" height="20" as="geometry" />
        </mxCell>
        <mxCell id="743" value="X2 ≤ 100" style="text;spacingTop=-5;html=1;points=[];fontSize=15;" parent="1" vertex="1">
          <mxGeometry x="3297.5" y="959.5000000000001" width="80" height="20" as="geometry" />
        </mxCell>
        <mxCell id="744" value="2*(X1)+X2 ≤ 100" style="text;spacingTop=-5;html=1;points=[];fontSize=15;" parent="1" vertex="1">
          <mxGeometry x="3297.5" y="999.5000000000001" width="80" height="20" as="geometry" />
        </mxCell>
        <mxCell id="745" value="X2" style="text;spacingTop=-5;html=1;fontSize=18;fontStyle=0;points=[]" parent="1" vertex="1">
          <mxGeometry x="2612" y="999.5" width="80" height="20" as="geometry" />
        </mxCell>
        <mxCell id="746" value="0" style="text;spacingTop=-5;align=center;verticalAlign=middle;fontStyle=0;html=1;fontSize=18;points=[]" parent="1" vertex="1">
          <mxGeometry x="2582" y="1439.5000000000002" width="30" height="129.99999999999977" as="geometry" />
        </mxCell>
        <mxCell id="747" value="10" style="text;spacingTop=-5;align=center;verticalAlign=middle;fontStyle=0;html=1;fontSize=18;points=[]" parent="1" vertex="1">
          <mxGeometry x="2560" y="1409.5" width="30" height="54.5" as="geometry" />
        </mxCell>
        <mxCell id="749" value="Grafico de maximizar perfumes" style="text;spacingTop=-5;align=center;verticalAlign=middle;fontSize=30;fontStyle=1;html=1;points=[]" parent="1" vertex="1">
          <mxGeometry x="2437.5" y="854.5" width="810" height="45" as="geometry" />
        </mxCell>
        <mxCell id="Sir0Li-0Dpy--8XOf5-H-752" value="20" style="text;spacingTop=-5;align=center;verticalAlign=middle;fontStyle=0;html=1;fontSize=18;points=[]" vertex="1" parent="1">
          <mxGeometry x="2560" y="1369.5" width="30" height="54.5" as="geometry" />
        </mxCell>
        <mxCell id="Sir0Li-0Dpy--8XOf5-H-753" value="30" style="text;spacingTop=-5;align=center;verticalAlign=middle;fontStyle=0;html=1;fontSize=18;points=[]" vertex="1" parent="1">
          <mxGeometry x="2560" y="1329.5" width="30" height="54.5" as="geometry" />
        </mxCell>
        <mxCell id="Sir0Li-0Dpy--8XOf5-H-754" value="40" style="text;spacingTop=-5;align=center;verticalAlign=middle;fontStyle=0;html=1;fontSize=18;points=[]" vertex="1" parent="1">
          <mxGeometry x="2560" y="1289.5" width="30" height="54.5" as="geometry" />
        </mxCell>
        <mxCell id="Sir0Li-0Dpy--8XOf5-H-755" value="50" style="text;spacingTop=-5;align=center;verticalAlign=middle;fontStyle=0;html=1;fontSize=18;points=[]" vertex="1" parent="1">
          <mxGeometry x="2560" y="1251.75" width="30" height="54.5" as="geometry" />
        </mxCell>
        <mxCell id="Sir0Li-0Dpy--8XOf5-H-756" value="60" style="text;spacingTop=-5;align=center;verticalAlign=middle;fontStyle=0;html=1;fontSize=18;points=[]" vertex="1" parent="1">
          <mxGeometry x="2560" y="1209.5" width="30" height="54.5" as="geometry" />
        </mxCell>
        <mxCell id="Sir0Li-0Dpy--8XOf5-H-757" value="70" style="text;spacingTop=-5;align=center;verticalAlign=middle;fontStyle=0;html=1;fontSize=18;points=[]" vertex="1" parent="1">
          <mxGeometry x="2560" y="1171.75" width="30" height="54.5" as="geometry" />
        </mxCell>
        <mxCell id="Sir0Li-0Dpy--8XOf5-H-758" value="80" style="text;spacingTop=-5;align=center;verticalAlign=middle;fontStyle=0;html=1;fontSize=18;points=[]" vertex="1" parent="1">
          <mxGeometry x="2560" y="1129.5" width="30" height="54.5" as="geometry" />
        </mxCell>
        <mxCell id="Sir0Li-0Dpy--8XOf5-H-759" value="90" style="text;spacingTop=-5;align=center;verticalAlign=middle;fontStyle=0;html=1;fontSize=18;points=[]" vertex="1" parent="1">
          <mxGeometry x="2560" y="1092.5" width="30" height="54.5" as="geometry" />
        </mxCell>
        <mxCell id="Sir0Li-0Dpy--8XOf5-H-760" value="100" style="text;spacingTop=-5;align=center;verticalAlign=middle;fontStyle=0;html=1;fontSize=18;points=[]" vertex="1" parent="1">
          <mxGeometry x="2560" y="1049.5" width="30" height="54.5" as="geometry" />
        </mxCell>
        <mxCell id="Sir0Li-0Dpy--8XOf5-H-762" value="10" style="text;spacingTop=-5;align=center;verticalAlign=middle;fontStyle=0;html=1;fontSize=18;points=[]" vertex="1" parent="1">
          <mxGeometry x="2652" y="1489.5" width="30" height="54.5" as="geometry" />
        </mxCell>
        <mxCell id="Sir0Li-0Dpy--8XOf5-H-763" value="20" style="text;spacingTop=-5;align=center;verticalAlign=middle;fontStyle=0;html=1;fontSize=18;points=[]" vertex="1" parent="1">
          <mxGeometry x="2694.5" y="1489.5" width="30" height="54.5" as="geometry" />
        </mxCell>
        <mxCell id="Sir0Li-0Dpy--8XOf5-H-764" value="30" style="text;spacingTop=-5;align=center;verticalAlign=middle;fontStyle=0;html=1;fontSize=18;points=[]" vertex="1" parent="1">
          <mxGeometry x="2734.5" y="1489.5" width="30" height="54.5" as="geometry" />
        </mxCell>
        <mxCell id="Sir0Li-0Dpy--8XOf5-H-765" value="50" style="text;spacingTop=-5;align=center;verticalAlign=middle;fontStyle=0;html=1;fontSize=18;points=[]" vertex="1" parent="1">
          <mxGeometry x="2814.5" y="1489.5" width="30" height="54.5" as="geometry" />
        </mxCell>
        <mxCell id="Sir0Li-0Dpy--8XOf5-H-766" value="40" style="text;spacingTop=-5;align=center;verticalAlign=middle;fontStyle=0;html=1;fontSize=18;points=[]" vertex="1" parent="1">
          <mxGeometry x="2772" y="1489.5" width="30" height="54.5" as="geometry" />
        </mxCell>
        <mxCell id="Sir0Li-0Dpy--8XOf5-H-767" value="60" style="text;spacingTop=-5;align=center;verticalAlign=middle;fontStyle=0;html=1;fontSize=18;points=[]" vertex="1" parent="1">
          <mxGeometry x="2852" y="1489.5" width="30" height="54.5" as="geometry" />
        </mxCell>
        <mxCell id="Sir0Li-0Dpy--8XOf5-H-768" value="70" style="text;spacingTop=-5;align=center;verticalAlign=middle;fontStyle=0;html=1;fontSize=18;points=[]" vertex="1" parent="1">
          <mxGeometry x="2894.5" y="1489.5" width="30" height="54.5" as="geometry" />
        </mxCell>
        <mxCell id="Sir0Li-0Dpy--8XOf5-H-769" value="80" style="text;spacingTop=-5;align=center;verticalAlign=middle;fontStyle=0;html=1;fontSize=18;points=[]" vertex="1" parent="1">
          <mxGeometry x="2934.5" y="1489.5" width="30" height="54.5" as="geometry" />
        </mxCell>
        <mxCell id="Sir0Li-0Dpy--8XOf5-H-770" value="90" style="text;spacingTop=-5;align=center;verticalAlign=middle;fontStyle=0;html=1;fontSize=18;points=[]" vertex="1" parent="1">
          <mxGeometry x="2972" y="1489.5" width="30" height="54.5" as="geometry" />
        </mxCell>
        <mxCell id="Sir0Li-0Dpy--8XOf5-H-771" value="100" style="text;spacingTop=-5;align=center;verticalAlign=middle;fontStyle=0;html=1;fontSize=18;points=[]" vertex="1" parent="1">
          <mxGeometry x="3012" y="1489.5" width="30" height="54.5" as="geometry" />
        </mxCell>
        <mxCell id="Sir0Li-0Dpy--8XOf5-H-772" value="" style="endArrow=none;html=1;strokeWidth=5;rounded=0;fillColor=#ffcd28;gradientColor=#ffa500;strokeColor=#d79b00;startArrow=none;exitX=0.5;exitY=0;exitDx=0;exitDy=0;" edge="1" parent="1" source="Sir0Li-0Dpy--8XOf5-H-774">
          <mxGeometry width="50" height="50" relative="1" as="geometry">
            <mxPoint x="2823" y="1460" as="sourcePoint" />
            <mxPoint x="2820" y="1010" as="targetPoint" />
          </mxGeometry>
        </mxCell>
        <mxCell id="Sir0Li-0Dpy--8XOf5-H-775" value="" style="edgeStyle=none;html=1;fontColor=#000000;strokeWidth=3;strokeColor=#000000;endArrow=none;" edge="1" parent="1" target="Sir0Li-0Dpy--8XOf5-H-774">
          <mxGeometry width="100" height="100" relative="1" as="geometry">
            <mxPoint x="2622" y="1474" as="sourcePoint" />
            <mxPoint x="3074.5" y="1474.5" as="targetPoint" />
          </mxGeometry>
        </mxCell>
        <mxCell id="Sir0Li-0Dpy--8XOf5-H-776" value="" style="endArrow=none;html=1;strokeWidth=5;rounded=0;fillColor=#ffcd28;gradientColor=#ffa500;strokeColor=#d79b00;" edge="1" parent="1" target="Sir0Li-0Dpy--8XOf5-H-774">
          <mxGeometry width="50" height="50" relative="1" as="geometry">
            <mxPoint x="2820" y="1470" as="sourcePoint" />
            <mxPoint x="2820" y="1010" as="targetPoint" />
          </mxGeometry>
        </mxCell>
        <mxCell id="Sir0Li-0Dpy--8XOf5-H-774" value="" style="ellipse;whiteSpace=wrap;html=1;fillColor=#b0e3e6;strokeColor=#0e8088;" vertex="1" parent="1">
          <mxGeometry x="2814.5" y="1464" width="17" height="14" as="geometry" />
        </mxCell>
        <mxCell id="Sir0Li-0Dpy--8XOf5-H-777" value="" style="whiteSpace=wrap;fillColor=#ffcd28;gradientColor=#ffa500;gradientDirection=east;strokeColor=#d79b00;html=1;" vertex="1" parent="1">
          <mxGeometry x="3257.5" y="919.5" width="35.000000000000114" height="30.000000000000114" as="geometry" />
        </mxCell>
        <mxCell id="Sir0Li-0Dpy--8XOf5-H-779" value="" style="whiteSpace=wrap;fillColor=#f8cecc;gradientColor=#ea6b66;gradientDirection=east;strokeColor=#b85450;html=1;" vertex="1" parent="1">
          <mxGeometry x="3257.5" y="1030" width="35.000000000000114" height="30.000000000000227" as="geometry" />
        </mxCell>
        <mxCell id="Sir0Li-0Dpy--8XOf5-H-780" value="X1 + 3(X2) ≤ 80" style="text;spacingTop=-5;html=1;points=[];fontSize=15;" vertex="1" parent="1">
          <mxGeometry x="3297.5" y="1035" width="80" height="20" as="geometry" />
        </mxCell>
        <mxCell id="Sir0Li-0Dpy--8XOf5-H-781" value="" style="endArrow=none;html=1;strokeWidth=5;rounded=0;fillColor=#ffcd28;gradientColor=#ffa500;strokeColor=#d79b00;startArrow=none;" edge="1" parent="1" source="Sir0Li-0Dpy--8XOf5-H-782">
          <mxGeometry width="50" height="50" relative="1" as="geometry">
            <mxPoint x="3040" y="1080" as="sourcePoint" />
            <mxPoint x="2630" y="1080" as="targetPoint" />
          </mxGeometry>
        </mxCell>
        <mxCell id="Sir0Li-0Dpy--8XOf5-H-783" value="" style="endArrow=none;html=1;strokeWidth=5;rounded=0;fillColor=#d5e8d4;gradientColor=#97d077;strokeColor=#82b366;startArrow=none;" edge="1" parent="1" target="Sir0Li-0Dpy--8XOf5-H-782">
          <mxGeometry width="50" height="50" relative="1" as="geometry">
            <mxPoint x="3040" y="1080" as="sourcePoint" />
            <mxPoint x="2630" y="1080" as="targetPoint" />
          </mxGeometry>
        </mxCell>
        <mxCell id="Sir0Li-0Dpy--8XOf5-H-784" value="" style="edgeStyle=none;html=1;fontColor=#000000;strokeWidth=3;strokeColor=#000000;endArrow=none;startArrow=none;" edge="1" parent="1" source="Sir0Li-0Dpy--8XOf5-H-794" target="Sir0Li-0Dpy--8XOf5-H-782">
          <mxGeometry width="100" height="100" relative="1" as="geometry">
            <mxPoint x="2622" y="1474" as="sourcePoint" />
            <mxPoint x="2622.5" y="1029.5" as="targetPoint" />
          </mxGeometry>
        </mxCell>
        <mxCell id="Sir0Li-0Dpy--8XOf5-H-782" value="" style="ellipse;whiteSpace=wrap;html=1;fillColor=#b0e3e6;strokeColor=#0e8088;" vertex="1" parent="1">
          <mxGeometry x="2612" y="1069.75" width="17" height="14" as="geometry" />
        </mxCell>
        <mxCell id="Sir0Li-0Dpy--8XOf5-H-785" value="" style="endArrow=none;html=1;strokeWidth=5;rounded=0;fillColor=#dae8fc;gradientColor=#7ea6e0;strokeColor=#6c8ebf;startArrow=none;entryX=1;entryY=1;entryDx=0;entryDy=0;exitX=0;exitY=0;exitDx=0;exitDy=0;" edge="1" parent="1" source="Sir0Li-0Dpy--8XOf5-H-786" target="Sir0Li-0Dpy--8XOf5-H-782">
          <mxGeometry width="50" height="50" relative="1" as="geometry">
            <mxPoint x="2840" y="1470" as="sourcePoint" />
            <mxPoint x="2639" y="1087" as="targetPoint" />
          </mxGeometry>
        </mxCell>
        <mxCell id="Sir0Li-0Dpy--8XOf5-H-787" value="" style="edgeStyle=none;html=1;fontColor=#000000;strokeWidth=3;strokeColor=#000000;startArrow=none;endArrow=none;" edge="1" parent="1" source="Sir0Li-0Dpy--8XOf5-H-774" target="Sir0Li-0Dpy--8XOf5-H-786">
          <mxGeometry width="100" height="100" relative="1" as="geometry">
            <mxPoint x="2831" y="1471" as="sourcePoint" />
            <mxPoint x="3074.5" y="1474.5" as="targetPoint" />
          </mxGeometry>
        </mxCell>
        <mxCell id="Sir0Li-0Dpy--8XOf5-H-786" value="" style="ellipse;whiteSpace=wrap;html=1;fillColor=#b0e3e6;strokeColor=#0e8088;" vertex="1" parent="1">
          <mxGeometry x="2835" y="1464" width="17" height="14" as="geometry" />
        </mxCell>
        <mxCell id="Sir0Li-0Dpy--8XOf5-H-788" value="" style="endArrow=none;html=1;strokeWidth=5;rounded=0;fillColor=#f8cecc;gradientColor=#ea6b66;strokeColor=#b85450;startArrow=none;entryX=1;entryY=1;entryDx=0;entryDy=0;exitX=0;exitY=0;exitDx=0;exitDy=0;" edge="1" parent="1" source="Sir0Li-0Dpy--8XOf5-H-800" target="Sir0Li-0Dpy--8XOf5-H-794">
          <mxGeometry width="50" height="50" relative="1" as="geometry">
            <mxPoint x="2960" y="1460" as="sourcePoint" />
            <mxPoint x="2650" y="1400" as="targetPoint" />
          </mxGeometry>
        </mxCell>
        <mxCell id="Sir0Li-0Dpy--8XOf5-H-795" value="" style="edgeStyle=none;html=1;fontColor=#000000;strokeWidth=3;strokeColor=#000000;endArrow=none;" edge="1" parent="1" target="Sir0Li-0Dpy--8XOf5-H-794">
          <mxGeometry width="100" height="100" relative="1" as="geometry">
            <mxPoint x="2622" y="1474" as="sourcePoint" />
            <mxPoint x="2621" y="1084" as="targetPoint" />
          </mxGeometry>
        </mxCell>
        <mxCell id="Sir0Li-0Dpy--8XOf5-H-794" value="" style="ellipse;whiteSpace=wrap;html=1;fillColor=#fad7ac;strokeColor=#b46504;" vertex="1" parent="1">
          <mxGeometry x="2612" y="1360" width="17" height="14" as="geometry" />
        </mxCell>
        <mxCell id="Sir0Li-0Dpy--8XOf5-H-797" value="" style="edgeStyle=none;html=1;fontColor=#000000;strokeWidth=3;strokeColor=#000000;startArrow=none;endArrow=none;" edge="1" parent="1" source="Sir0Li-0Dpy--8XOf5-H-786" target="Sir0Li-0Dpy--8XOf5-H-796">
          <mxGeometry width="100" height="100" relative="1" as="geometry">
            <mxPoint x="2852" y="1471" as="sourcePoint" />
            <mxPoint x="3074.5" y="1474.5" as="targetPoint" />
          </mxGeometry>
        </mxCell>
        <mxCell id="Sir0Li-0Dpy--8XOf5-H-796" value="" style="ellipse;whiteSpace=wrap;html=1;fillColor=#b0e3e6;strokeColor=#0e8088;" vertex="1" parent="1">
          <mxGeometry x="2955" y="1464" width="17" height="14" as="geometry" />
        </mxCell>
        <mxCell id="Sir0Li-0Dpy--8XOf5-H-801" value="" style="endArrow=none;html=1;strokeWidth=5;rounded=0;fillColor=#f8cecc;gradientColor=#ea6b66;strokeColor=#b85450;startArrow=none;entryX=1;entryY=1;entryDx=0;entryDy=0;exitX=0;exitY=0;exitDx=0;exitDy=0;" edge="1" parent="1" source="Sir0Li-0Dpy--8XOf5-H-796" target="Sir0Li-0Dpy--8XOf5-H-800">
          <mxGeometry width="50" height="50" relative="1" as="geometry">
            <mxPoint x="2957" y="1466" as="sourcePoint" />
            <mxPoint x="2627" y="1372" as="targetPoint" />
          </mxGeometry>
        </mxCell>
        <mxCell id="Sir0Li-0Dpy--8XOf5-H-800" value="" style="ellipse;whiteSpace=wrap;html=1;fillColor=#e6d0de;strokeColor=#996185;gradientColor=#d5739d;" vertex="1" parent="1">
          <mxGeometry x="2814.5" y="1424" width="17" height="14" as="geometry" />
        </mxCell>
        <mxCell id="Sir0Li-0Dpy--8XOf5-H-806" value="" style="endArrow=none;html=1;rounded=0;fillColor=#6a00ff;strokeColor=#3700CC;" edge="1" parent="1">
          <mxGeometry width="50" height="50" relative="1" as="geometry">
            <mxPoint x="2620" y="1434" as="sourcePoint" />
            <mxPoint x="2670" y="1384" as="targetPoint" />
          </mxGeometry>
        </mxCell>
        <mxCell id="Sir0Li-0Dpy--8XOf5-H-807" value="" style="endArrow=none;html=1;rounded=0;fillColor=#6a00ff;strokeColor=#3700CC;" edge="1" parent="1">
          <mxGeometry width="50" height="50" relative="1" as="geometry">
            <mxPoint x="2620" y="1450" as="sourcePoint" />
            <mxPoint x="2690" y="1390" as="targetPoint" />
          </mxGeometry>
        </mxCell>
        <mxCell id="Sir0Li-0Dpy--8XOf5-H-808" value="" style="endArrow=none;html=1;rounded=0;fillColor=#6a00ff;strokeColor=#3700CC;startArrow=none;" edge="1" parent="1" source="Sir0Li-0Dpy--8XOf5-H-834">
          <mxGeometry width="50" height="50" relative="1" as="geometry">
            <mxPoint x="2620" y="1470" as="sourcePoint" />
            <mxPoint x="2700" y="1390" as="targetPoint" />
          </mxGeometry>
        </mxCell>
        <mxCell id="Sir0Li-0Dpy--8XOf5-H-809" value="" style="endArrow=none;html=1;rounded=0;fillColor=#6a00ff;strokeColor=#3700CC;" edge="1" parent="1">
          <mxGeometry width="50" height="50" relative="1" as="geometry">
            <mxPoint x="2640" y="1470" as="sourcePoint" />
            <mxPoint x="2710" y="1400" as="targetPoint" />
          </mxGeometry>
        </mxCell>
        <mxCell id="Sir0Li-0Dpy--8XOf5-H-810" value="" style="endArrow=none;html=1;rounded=0;fillColor=#6a00ff;strokeColor=#3700CC;" edge="1" parent="1">
          <mxGeometry width="50" height="50" relative="1" as="geometry">
            <mxPoint x="2660" y="1474" as="sourcePoint" />
            <mxPoint x="2730" y="1400" as="targetPoint" />
          </mxGeometry>
        </mxCell>
        <mxCell id="Sir0Li-0Dpy--8XOf5-H-811" value="" style="endArrow=none;html=1;rounded=0;fillColor=#6a00ff;strokeColor=#3700CC;" edge="1" parent="1">
          <mxGeometry width="50" height="50" relative="1" as="geometry">
            <mxPoint x="2680" y="1470" as="sourcePoint" />
            <mxPoint x="2740" y="1410" as="targetPoint" />
          </mxGeometry>
        </mxCell>
        <mxCell id="Sir0Li-0Dpy--8XOf5-H-812" value="" style="endArrow=none;html=1;rounded=0;fillColor=#6a00ff;strokeColor=#3700CC;" edge="1" parent="1">
          <mxGeometry width="50" height="50" relative="1" as="geometry">
            <mxPoint x="2710" y="1470" as="sourcePoint" />
            <mxPoint x="2760" y="1410" as="targetPoint" />
          </mxGeometry>
        </mxCell>
        <mxCell id="Sir0Li-0Dpy--8XOf5-H-813" value="" style="endArrow=none;html=1;rounded=0;fillColor=#6a00ff;strokeColor=#3700CC;" edge="1" parent="1">
          <mxGeometry width="50" height="50" relative="1" as="geometry">
            <mxPoint x="2724.5" y="1473.5" as="sourcePoint" />
            <mxPoint x="2770" y="1420" as="targetPoint" />
          </mxGeometry>
        </mxCell>
        <mxCell id="Sir0Li-0Dpy--8XOf5-H-814" value="" style="endArrow=none;html=1;rounded=0;fillColor=#6a00ff;strokeColor=#3700CC;" edge="1" parent="1">
          <mxGeometry width="50" height="50" relative="1" as="geometry">
            <mxPoint x="2740" y="1474" as="sourcePoint" />
            <mxPoint x="2780" y="1424" as="targetPoint" />
          </mxGeometry>
        </mxCell>
        <mxCell id="Sir0Li-0Dpy--8XOf5-H-819" value="" style="endArrow=none;html=1;rounded=0;fillColor=#6a00ff;strokeColor=#3700CC;" edge="1" parent="1">
          <mxGeometry width="50" height="50" relative="1" as="geometry">
            <mxPoint x="2760" y="1474" as="sourcePoint" />
            <mxPoint x="2800" y="1424" as="targetPoint" />
          </mxGeometry>
        </mxCell>
        <mxCell id="Sir0Li-0Dpy--8XOf5-H-820" value="" style="endArrow=none;html=1;rounded=0;fillColor=#6a00ff;strokeColor=#3700CC;" edge="1" parent="1">
          <mxGeometry width="50" height="50" relative="1" as="geometry">
            <mxPoint x="2780" y="1470" as="sourcePoint" />
            <mxPoint x="2812" y="1428" as="targetPoint" />
          </mxGeometry>
        </mxCell>
        <mxCell id="Sir0Li-0Dpy--8XOf5-H-821" value="" style="endArrow=none;html=1;rounded=0;fillColor=#6a00ff;strokeColor=#3700CC;" edge="1" parent="1">
          <mxGeometry width="50" height="50" relative="1" as="geometry">
            <mxPoint x="2800" y="1470" as="sourcePoint" />
            <mxPoint x="2820" y="1438" as="targetPoint" />
          </mxGeometry>
        </mxCell>
        <mxCell id="Sir0Li-0Dpy--8XOf5-H-822" value="" style="endArrow=none;html=1;rounded=0;fillColor=#0050ef;strokeColor=#001DBC;" edge="1" parent="1">
          <mxGeometry width="50" height="50" relative="1" as="geometry">
            <mxPoint x="2620" y="1419.5" as="sourcePoint" />
            <mxPoint x="2650" y="1380" as="targetPoint" />
          </mxGeometry>
        </mxCell>
        <mxCell id="Sir0Li-0Dpy--8XOf5-H-823" value="" style="endArrow=none;html=1;rounded=0;fillColor=#6a00ff;strokeColor=#3700CC;" edge="1" parent="1">
          <mxGeometry width="50" height="50" relative="1" as="geometry">
            <mxPoint x="2620" y="1400" as="sourcePoint" />
            <mxPoint x="2640" y="1380" as="targetPoint" />
          </mxGeometry>
        </mxCell>
        <mxCell id="Sir0Li-0Dpy--8XOf5-H-829" value="Región factible" style="text;spacingTop=-5;align=center;verticalAlign=middle;fontStyle=0;html=1;fontSize=18;points=[];fillColor=#6a00ff;fontColor=#ffffff;strokeColor=#3700CC;strokeWidth=4;perimeterSpacing=0;rounded=1;glass=0;shadow=1;" vertex="1" parent="1">
          <mxGeometry x="2654" y="1424" width="118" height="19.75" as="geometry" />
        </mxCell>
        <mxCell id="Sir0Li-0Dpy--8XOf5-H-832" value="&lt;div&gt;X1 = 0&lt;/div&gt;&lt;div&gt;X2 = 26.6&lt;br&gt;&lt;/div&gt;" style="text;spacingTop=-5;align=center;verticalAlign=middle;fontStyle=0;html=1;fontSize=18;points=[];fillColor=#fad7ac;strokeColor=#FFE6CC;strokeWidth=4;" vertex="1" parent="1">
          <mxGeometry x="2630" y="1315" width="100" height="45" as="geometry" />
        </mxCell>
        <mxCell id="Sir0Li-0Dpy--8XOf5-H-833" value="&lt;div&gt;X1 = 45&lt;br&gt;&lt;/div&gt;&lt;div&gt;X2 = 10&lt;br&gt;&lt;/div&gt;" style="text;spacingTop=-5;align=center;verticalAlign=middle;fontStyle=0;html=1;fontSize=18;points=[];fillColor=#e6d0de;strokeColor=#CDA2BE;strokeWidth=4;gradientColor=#d5739d;" vertex="1" parent="1">
          <mxGeometry x="2835" y="1369.5" width="100" height="45" as="geometry" />
        </mxCell>
        <mxCell id="Sir0Li-0Dpy--8XOf5-H-835" value="" style="endArrow=none;html=1;rounded=0;fillColor=#6a00ff;strokeColor=#3700CC;" edge="1" parent="1" target="Sir0Li-0Dpy--8XOf5-H-834">
          <mxGeometry width="50" height="50" relative="1" as="geometry">
            <mxPoint x="2620" y="1470" as="sourcePoint" />
            <mxPoint x="2700" y="1390" as="targetPoint" />
          </mxGeometry>
        </mxCell>
        <mxCell id="Sir0Li-0Dpy--8XOf5-H-834" value="" style="ellipse;whiteSpace=wrap;html=1;" vertex="1" parent="1">
          <mxGeometry x="2612" y="1464" width="17" height="14" as="geometry" />
        </mxCell>
        <mxCell id="Sir0Li-0Dpy--8XOf5-H-837" value="&lt;div&gt;X1 = 0&lt;/div&gt;&lt;div&gt;X2 = 0&lt;br&gt;&lt;/div&gt;" style="text;spacingTop=-5;align=center;verticalAlign=middle;fontStyle=0;html=1;fontSize=18;points=[];strokeWidth=4;strokeColor=default;" vertex="1" parent="1">
          <mxGeometry x="2482" y="1478" width="100" height="45" as="geometry" />
        </mxCell>
      </root>
    </mxGraphModel>
  </diagram>
</mxfile>
